<mxfile host="app.diagrams.net" modified="2023-07-28T13:42:27.197Z" agent="Mozilla/5.0 (Windows NT 10.0; Win64; x64) AppleWebKit/537.36 (KHTML, like Gecko) Chrome/115.0.0.0 Safari/537.36" version="21.6.5" etag="c5imEm0RdfmjcYIMy4IQ" type="github">
  <diagram name="Trang-1" id="WgQNAijDBy9ESpJEoytU">
    <mxGraphModel>
      <root>
        <mxCell id="0" />
        <mxCell id="1" parent="0" />
      </root>
    </mxGraphModel>
  </diagram>
</mxfile>
